<svg xmlns="http://www.w3.org/2000/svg" viewBox="0 0 576 576"><defs><style>.cls-1{fill:#fff;}.cls-2{fill:#f4792a;}</style></defs><title>emblem-flame-rgb</title><g id="emblem"><circle class="cls-1" cx="288.18" cy="288.18" r="250.2"/><path class="cls-2" d="M428.12,174.77l-6.54,1.78c-3.27-6.54-7.43-10.1-17.83-10.1H305.82V431.9c0,10.7,4.76,14.57,11.3,14.57l1.3,5.35H254.88l1.31-5.35c6.24,0,11.59-4.16,11.59-14.57V166.45H170.15c-10.1,0-15.75,4.16-18.13,10.1l-6.54-1.78L155,134.05c2.38.89,7.73,1.48,15.76,1.48H405.53c4.46,0,10.7-.59,13.08-1.48ZM393,413.88c-27.1,0-60.9-1-69.39-1.91v-6.05c6.53,0,10.77-4.45,10.77-10.18V206.18c0-6.36-4.24-10.49-10.77-10.49v-6.36c10.45-1,45.23-2.23,68.73-2.23,50.28,0,77.38,26.72,77.38,107.19C469.71,376.66,447.18,413.88,393,413.88Zm6.86-194c-4.58,0-23.69,0-25.65.32V381.11c2,.32,21.4.32,23.69.32,20.89,0,30.68-24.49,30.68-87.14C428.57,235.44,416.17,219.86,399.85,219.86ZM250.21,196v-6.36s-25.79.19-46.37.15c0,0-4.5,5.19-4.5,18V366.16c0,12.73-9.14,18.77-19.91,18.77-10.12,0-19.59-5.09-19.59-18.77V207.77c0-8,4.57-12.09,10.77-12.09v-6H126.85s-6.51,6.14-6.51,18.13V370c0,8.59-.33,13-2.29,18.45,10.78,13,30.69,28.94,61.38,28.94,27.09,0,62.29-4.15,70.78-5.11v-6c-6.53,0-10.78-4.45-10.78-10.18V206.48C239.43,200.12,243.68,196,250.21,196ZM77.52,383.15a2,2,0,0,0-.57,2.38l3,5.57,15.92-8.46c1.4-.75,1.73-1.48,1.21-2.45l.74-.39,5,9.3-.73.39c-.52-1-1.34-1.13-2.74-.39l-15.92,8.46L86.29,403a2.15,2.15,0,0,0,2.36,1l.24,1.16L82.15,407a6.77,6.77,0,0,0-.78-1.94l-9-16.85a6.24,6.24,0,0,0-1-1.37l5.32-4.53Zm9.35-29.58-.78.28c-.37-1-1.12-1.33-2.61-.79l-7.41,2.66,3.24,9,7.42-2.66c1.46-.52,1.88-1.24,1.51-2.27l.78-.28,3.58,10-.78.28c-.36-1-1.12-1.33-2.61-.79l-19.59,7a1.59,1.59,0,0,0-1.08,2.12l-.78.28-3.58-10,.78-.28c.37,1,1.08,1.34,2.57.81L74,366.68l-3.25-9.05-6.85,2.45a1.53,1.53,0,0,0-1.08,2.12l-.78.28-3.57-9.94.78-.27c.37,1,1.07,1.3,2.56.77L81,346.15c1.46-.52,1.92-1.12,1.52-2.24l.78-.27Zm-8.33-34.44a10.9,10.9,0,0,0,.14,2.72l3.57,17.21-.81.17c-.22-1.08-1-1.46-2.26-1.2l-20.44,4.25a1.76,1.76,0,0,0-1.59,2l-.78.16-3.63-17.49a16.52,16.52,0,0,0-.73-2.22L58.3,322l.44.78a2.4,2.4,0,0,0-.85,2.8l1.87,9,4.47-.92-1.7-8.23c-.18-.88-.58-1.3-1.39-1.13l-.19-.92,7.5-1.55.19.92c-.77.16-1,.7-.78,1.57l1.7,8.23,5.55-1.15-1.9-9.14A2.41,2.41,0,0,0,71,320l.1-1ZM52.83,264.08l15.37.61c1.58.06,3.21,0,3.71-.35,3.26,3.44,5,6.44,4.77,12.06s-2.13,9.3-5.72,12.46c-.48-.39-1.79-.56-3.67-.63l-15.48-.61c-1.58-.07-2,.53-2.06,1.55l-.83,0,.41-10.58.82,0c0,1.1.36,1.64,1.94,1.71l15,.59c2.75.11,3.93-2,4-4.82.1-2.52-1.23-4.33-3.6-4.42L52.45,271c-1.59-.06-2,.41-2.06,1.51l-.83,0L50,262.38l.83,0C50.74,263.51,51.25,264,52.83,264.08Zm5.66-34.5L81.57,234l-1.19,6.28a5.74,5.74,0,0,0-2.51.48l-16.14,7,0,.16,13.71,2.61c1.52.29,2.2-.07,2.4-1.15l.82.15L76.84,259l-.82-.16c.2-1.08-.26-1.71-1.81-2L53.87,253a1.7,1.7,0,0,0-2.16,1.25l-.82-.16,1.94-10.21a6.18,6.18,0,0,0,2.58-.66l12-5.1,0-.16-10.31-2c-1.4-.27-2,.12-2.19,1.24l-.81-.16,1.81-9.56.82.15C56.54,228.71,56.93,229.28,58.49,229.58Zm25-1.87-.79-.24c.31-1-.06-1.73-1.57-2.2l-19.77-6.12a1.69,1.69,0,0,0-2.28,1l-.8-.24,3.13-10.11.8.24c-.29.94,0,1.7,1.49,2.17l19.6,6.07c1.47.46,2.21.14,2.53-.92l.79.25ZM77.3,178.79l14.94,15.68a4.93,4.93,0,0,0,1.35,1.14.87.87,0,0,0,1.23-.44l.76.33-4.09,9.24-.76-.34a.87.87,0,0,0-.48-1.24,4.45,4.45,0,0,0-1.82-.27l-21.84-.57c-1.66-.06-2,0-2.47,1l-.76-.34,4.77-10.76.76.34c-.41.93-.49,1.65.37,2a4.32,4.32,0,0,0,1,.23l15.45,1.39,0-.07L74.18,185.83a3.11,3.11,0,0,0-.85-.6c-.79-.35-1.31.26-1.64,1l-.76-.34,4.52-10.2.75.33C75.76,177,76.14,177.57,77.3,178.79Zm35.23-12.42a10.7,10.7,0,0,0-1.76,2.07l-9.25,14.92-.7-.44c.58-.93.28-1.74-.81-2.41l-17.75-11a1.77,1.77,0,0,0-2.52.35l-.68-.41,9.39-15.17a16.76,16.76,0,0,0,1-2.11l6.47,2.33-.23.86a2.4,2.4,0,0,0-2.54,1.45l-4.85,7.82L92.19,167l4.42-7.13c.47-.76.47-1.34-.24-1.78l.49-.79,6.52,4-.49.8c-.68-.42-1.19-.16-1.66.6l-4.42,7.13,4.81,3,4.92-7.92a2.41,2.41,0,0,0,0-3.13l.78-.67Zm13-17.48a34.4,34.4,0,0,1-8-2.85c-.26.36-.72,1-1.21,1.59s-.93,1.07-1.32,1.49l4,3.25c1.23,1,2,.9,2.64.06l.64.52-6.71,8.18-.64-.52c.65-.79.65-1.57-.58-2.58L98.22,144.87a1.63,1.63,0,0,0-2.49.07l-.65-.53c1.13-1.5,3.56-4.87,6.19-8.08,5.32-6.49,10.58-10.7,16.6-5.78a8.63,8.63,0,0,1,2.42,9.49,28.31,28.31,0,0,0,8.57,1.92,2.15,2.15,0,0,0,2.08-.93l.65.53ZM106.1,139c-.54.66-1,1.31-1.33,1.75l6.18,5.06c.58-.58,1.13-1.18,1.62-1.78,2.73-3.34,3-5.69.76-7.53C111.25,134.81,109,135.52,106.1,139ZM142.79,132c-1.88,1.76-5.09,3.58-6,4.45a3.86,3.86,0,0,0-.92,1.22l-7-5.28.76-1.28a5.77,5.77,0,0,0,2.41.74c1.67,0,3.46-.61,6.14-3.12,2.52-2.37,2.78-4,1.83-5-.7-.75-1.73-.72-7.44,1.48-4.83,1.89-8.1,1.8-10.39-.65-3.3-3.53-2.82-8.85,2.68-14,1.43-1.34,3.74-2.62,4.55-3.38a3.91,3.91,0,0,0,.91-1.17l5.89,5-.71,1a3.51,3.51,0,0,0-2.33-.35c-1.13.23-2.31.77-4.35,2.69-2.26,2.13-2.38,3.68-1.68,4.42s2.08.49,6.73-1.34c4.17-1.64,8.05-2.33,11.07.9C148.33,121.88,148.46,126.62,142.79,132Zm11.38-11.06-.51-.66c.85-.64,1-1.44,0-2.69L141,101.12a1.7,1.7,0,0,0-2.45-.5l-.51-.66,8.41-6.46.51.65c-.77.6-1,1.39,0,2.64l12.53,16.27c.94,1.23,1.73,1.38,2.6.72l.51.65Zm22.74-38.78a2,2,0,0,0-2.41-.43L169.1,85l9.42,15.38c.83,1.35,1.58,1.64,2.53,1.07l.43.7-9,5.51-.44-.7c.94-.58,1.06-1.4.23-2.76l-9.42-15.37L157.55,92a2.12,2.12,0,0,0-.82,2.4l-1.15.31-2.28-6.61a6.79,6.79,0,0,0,1.89-.89l16.32-10a6.26,6.26,0,0,0,1.31-1.07l4.85,5Zm28.45-17.37L203.75,82l2.15,5c.61,1.42,1.25,1.68,2.26,1.25l.33.76L198.8,93.2l-.33-.76c1-.44,1.28-1,.66-2.51L197,85,183.39,74.24c-1.73-1.35-2.07-1.41-2.82-1.09l-.32-.76,10.47-4.5.33.77a1.29,1.29,0,0,0-.81,1.62,2.56,2.56,0,0,0,.6.77l7.45,6.83.07,0,.3-10.24a2.33,2.33,0,0,0-.16-1c-.24-.55-.83-.79-1.62-.46l-.32-.76,9.57-4.11.33.77C205.79,62.34,205.56,62.72,205.36,64.74Zm50.56,12.48c-8.62,1.27-14.5-4-15.67-12-1.29-8.77,4-14.73,11.57-15.84s14.41,3.1,15.7,11.83C268.7,69.24,264.58,75.94,255.92,77.22ZM252.6,54.94c-3.3.49-5.68,3.62-4.86,9.18s3.66,8.12,7.33,7.58c3.83-.56,5.67-4,4.88-9.34C259.07,56.39,255.87,54.46,252.6,54.94Zm41.83-.73c-.63-1-1.08-1.38-2.19-1.36l-9.6.16.08,5.25,8.31-.14c1,0,1.46-.37,1.44-1.2h.94l.13,7.7-.9,0c0-.8-.63-1.13-1.52-1.11l-8.31.14.12,7.67c0,1.36.56,2,1.66,1.93l0,.83L274,74.27v-.83c1,0,1.62-.55,1.59-2l-.34-20.92a1.68,1.68,0,0,0-1.65-1.85l0-.84,17.88-.3a11.5,11.5,0,0,0,2.28-.3l1.57,6.69Zm56.44,9.11a2,2,0,0,0-1.42-2L343.3,59.9l-4.08,17.55c-.37,1.54,0,2.27,1,2.52l-.19.81L329.8,78.39l.18-.81c1.07.25,1.74-.26,2.09-1.8l4.09-17.55-6-1.4A2.15,2.15,0,0,0,327.85,58l-1-.58,3-6.31a6.27,6.27,0,0,0,2,.69l18.61,4.34a6,6,0,0,0,1.67.16l-.08,7Zm19.3,28A10.16,10.16,0,0,0,367.8,90l-16.42-6.2.29-.78c1,.39,1.77-.06,2.22-1.26l7.38-19.53a1.76,1.76,0,0,0-.84-2.41l.29-.74,16.68,6.3a19.26,19.26,0,0,0,2.27.57l-1,6.79-.89-.05a2.4,2.4,0,0,0-1.91-2.22l-8.61-3.25-1.61,4.27,7.84,3c.84.31,1.4.2,1.7-.57l.88.33-2.71,7.17-.88-.33c.28-.75-.07-1.2-.91-1.52l-7.85-3-2,5.3,8.73,3.29a2.4,2.4,0,0,0,3.06-.62l.81.63Zm19.36,9.26.4-.73c.68.37,1.21.32,1.45-.12a2.41,2.41,0,0,0,.19-1.39L391,92.32l-.07,0-5.38,2.84a2.41,2.41,0,0,0-1,1c-.27.5.06.93.66,1.25l-.39.74-10-5.41.39-.72c1,.52,1.44.26,3.27-.65L390,85.79,388.29,73c-.25-1.76-.31-2.35-1.28-2.87l.4-.73,10.18,5.5-.4.73a.92.92,0,0,0-1.4.36,2.57,2.57,0,0,0-.12,1l.49,6,0,0,5.18-2.73a2,2,0,0,0,.81-.81.94.94,0,0,0-.44-1.4l.39-.74,10.14,5.48-.39.74c-1-.53-1.74-.3-3.48.52l-11.18,5.42,1.65,12.79c.2,1.61.29,2.56,1.26,3.08l-.4.73Zm26.69,17.66.5-.66c.84.64,1.52.62,1.95,0a4.25,4.25,0,0,0,.37-.9l.22-.64a15.09,15.09,0,0,1-3.87-2.16,15.28,15.28,0,0,1-3.09-3.08l-.66.4a2.52,2.52,0,0,0-.76.61c-.45.6-.21,1.16.47,1.68l-.5.66-8.42-6.35.5-.66c.81.61,1.16.69,2.54-.2l18.45-12a6.59,6.59,0,0,0,1.12-1,.84.84,0,0,0-.18-1.31l.5-.67L434,98.58l-.49.67a.88.88,0,0,0-1.38.19,6.43,6.43,0,0,0-.69,1.75l-6.31,20.52c-.47,1.58-.32,2,.46,2.57l-.49.67Zm8.83-17.16,0,0-8.55,6.5a13.15,13.15,0,0,0,2.23,2.25,7.71,7.71,0,0,0,2.52,1.33Zm9,33.78c-1.84-1.8-3.79-4.92-4.69-5.81a4.3,4.3,0,0,0-1.27-.87l5-7.22,1.31.7a5.66,5.66,0,0,0-.63,2.45c.08,1.66.75,3.43,3.37,6s4.12,2.61,5.09,1.61c.72-.73.64-1.75-1.79-7.36-2.1-4.74-2.14-8,.21-10.4,3.38-3.45,8.72-3.19,14.11,2.08,1.39,1.37,2.78,3.63,3.57,4.4a4,4,0,0,0,1.2.86l-4.77,6.1-1-.67a3.54,3.54,0,0,0,.25-2.35c-.28-1.11-.86-2.26-2.87-4.23-2.22-2.17-3.77-2.21-4.48-1.48s-.4,2.09,1.63,6.66c1.81,4.09,2.65,7.94-.43,11.09C444.36,140,439.63,140.35,434.07,134.9Zm34.45,42.47.71-.44c.55.9,1.18,1.14,1.79.76a4.06,4.06,0,0,0,.67-.7l.44-.51a15.29,15.29,0,0,1-2.82-3.43,15.62,15.62,0,0,1-1.75-4l-.76.14a2.7,2.7,0,0,0-.93.28c-.64.4-.62,1-.17,1.74l-.71.43-5.53-9,.7-.44c.54.86.84,1.07,2.45.74l21.54-4.43a6.31,6.31,0,0,0,1.39-.47.86.86,0,0,0,.31-1.3l.71-.43,5.66,9.2-.7.43a.89.89,0,0,0-1.36-.32,6.25,6.25,0,0,0-1.28,1.37l-13.34,16.8c-1,1.3-1,1.73-.5,2.56l-.71.44ZM483,164.62l0,0-10.33,2.92a13.29,13.29,0,0,0,1.26,2.91,7.75,7.75,0,0,0,1.86,2.16Zm18.88,35.9a2,2,0,0,0,.72-2.33L500,192.44l-16.41,7.46c-1.45.66-1.83,1.37-1.37,2.37l-.76.34L477,193l.76-.34c.45,1,1.25,1.22,2.7.56l16.42-7.46-2.57-5.63a2.12,2.12,0,0,0-2.29-1.11l-.17-1.18,6.85-1.45a6.69,6.69,0,0,0,.65,2l7.94,17.38a6.36,6.36,0,0,0,.9,1.43l-5.59,4.19Zm-7.93,44.28c-.61-3.49-1.14-7.37-1.27-9.17l.82-.14c.19,1.09.84,1.51,2.4,1.23l20.39-3.59a1.7,1.7,0,0,0,1.57-1.93l.82-.14c.55,2,1.35,5.47,2.09,9.68,1.9,10.79-2.55,16.82-10.28,18.19C502.34,260.36,496,256.75,493.93,244.8ZM515.6,243c-.12-.68-.32-1.6-.47-2.23l-15.71,2.76a15.81,15.81,0,0,0,.27,2.19c.77,4.37,4,6.65,9.39,5.71S516.3,247,515.6,243Zm-17.52,36.71.82,0c.05,1.06.48,1.57,1.2,1.54A3.55,3.55,0,0,0,501,281l.63-.23a16,16,0,0,1-.35-8.71l-.73-.26a2.21,2.21,0,0,0-.95-.2c-.75,0-1,.57-1,1.42l-.83,0-.42-10.55.82,0c.05,1,.21,1.34,1.78,1.85L520.93,271a5.87,5.87,0,0,0,1.44.27.84.84,0,0,0,.9-1l.83,0,.44,10.79-.83,0a.87.87,0,0,0-1-.94,6.28,6.28,0,0,0-1.79.56l-19.85,8.08c-1.53.63-1.73,1-1.69,2l-.84,0Zm18.85-4v0l-10.43-2.53a13.75,13.75,0,0,0-.33,3.16,7.94,7.94,0,0,0,.57,2.79Zm-21,38.76a7.79,7.79,0,0,0,.63-2.27l1.65-17.8.82.07c-.09,1.06.42,1.68,1.92,1.82l20.74,1.92a1.67,1.67,0,0,0,2-1.45l.82.08-1,10.54-.83-.08c.09-1-.37-1.67-1.88-1.81l-18-1.67-.88,9.57a2.28,2.28,0,0,0,1.44,2.5l-.4,1ZM490.78,340a7.73,7.73,0,0,0,.91-2.19l3.83-17.49.81.17c-.23,1,.2,1.72,1.68,2L518.37,327a1.66,1.66,0,0,0,2.15-1.2l.81.18-2.26,10.36-.81-.18c.2-1-.17-1.71-1.65-2l-17.7-3.85-2.06,9.4A2.3,2.3,0,0,0,498,342.3l-.51.89Zm-6.37,20.41.78.28c-.36,1-.15,1.64.52,1.88a3.85,3.85,0,0,0,1,.1l.68,0a14.67,14.67,0,0,1,.94-4.33,15.43,15.43,0,0,1,2-3.85l-.58-.52a2.34,2.34,0,0,0-.8-.55c-.71-.26-1.17.14-1.47.94l-.78-.28,3.62-9.92.78.28c-.35,1-.32,1.32.94,2.38L508.92,361a6.22,6.22,0,0,0,1.23.79.85.85,0,0,0,1.21-.55l.78.28-3.7,10.15-.78-.29a.86.86,0,0,0-.59-1.25,6,6,0,0,0-1.87-.16l-21.48-.06c-1.65,0-2,.28-2.32,1.2l-.78-.29Zm19,3.44v0l-8.71-6.29a13.68,13.68,0,0,0-1.5,2.79,8,8,0,0,0-.54,2.8Zm-29.7,18.45c1.19-2.27,3.61-5.05,4.2-6.16a4,4,0,0,0,.46-1.46l8.36,2.66-.29,1.45a5.7,5.7,0,0,0-2.52.11c-1.57.56-3.06,1.71-4.76,5-1.6,3.07-1.3,4.69-.06,5.34.9.47,1.86.1,6.52-3.86,3.93-3.37,7.05-4.36,10-2.81,4.29,2.23,5.59,7.41,2.1,14.09-.9,1.73-2.66,3.71-3.17,4.68a4.4,4.4,0,0,0-.48,1.41l-7.22-2.8.34-1.15a3.59,3.59,0,0,0,2.33-.45c1-.59,1.92-1.48,3.22-4,1.43-2.74,1-4.24.11-4.71s-2.12.23-5.91,3.49c-3.39,2.91-6.82,4.84-10.74,2.8C471.81,393.61,470.11,389.19,473.71,382.29ZM127,433.46l7.75,7.36,8.88-4.56-4.09,9.11,7.75,7.35L137.05,451,133,460.1l-2.27-10.18-10.28-1.74,8.88-4.55Zm74.12,74a10.87,10.87,0,0,0-2.31-1.45l-16.12-7,.33-.76c1,.43,1.76,0,2.28-1.16L193.62,478a1.78,1.78,0,0,0-.71-2.45l.31-.72,16.38,7.1a19.13,19.13,0,0,0,2.24.68l-1.36,6.73-.89-.09a2.41,2.41,0,0,0-1.8-2.31l-8.46-3.66-1.81,4.18,7.7,3.34c.83.36,1.4.28,1.73-.48l.86.37-3.05,7-.86-.37c.32-.73,0-1.2-.84-1.56l-7.7-3.34-2.25,5.19,8.56,3.71a2.41,2.41,0,0,0,3.09-.46l.79.66ZM219.84,514c-2.46-.72-5.66-2.55-6.88-2.91a4.07,4.07,0,0,0-1.52-.17l1-8.71h1.48a5.69,5.69,0,0,0,.61,2.46c.86,1.43,2.28,2.66,5.8,3.69,3.33,1,4.87.36,5.26-1,.28-1-.27-1.84-5.07-5.64-4.08-3.19-5.67-6.05-4.73-9.27,1.35-4.63,6.18-6.91,13.42-4.8,1.88.55,4.17,1.88,5.22,2.19a3.89,3.89,0,0,0,1.48.2l-1.33,7.62-1.2-.12a3.51,3.51,0,0,0-.9-2.18c-.77-.85-1.83-1.6-4.53-2.38-3-.87-4.36-.18-4.65.8s.64,2,4.59,5.11c3.53,2.75,6.1,5.74,4.86,10C231.33,513.67,227.32,516.19,219.84,514ZM264,502.44a2,2,0,0,0-1.56-1.89l-6.24-1-2.83,17.8c-.25,1.56.13,2.27,1.21,2.45l-.12.81L244,519l.13-.81c1.09.17,1.72-.38,2-1.95L249,498.42l-6.12-1a2.13,2.13,0,0,0-2.19,1.29l-1.08-.51,2.56-6.5a7.23,7.23,0,0,0,2,.55l18.9,3a6.07,6.07,0,0,0,1.68,0l.42,7Zm4.41,20.09c-1.79-.14-3.3-1.28-3.15-3.16a3.17,3.17,0,0,1,3.6-2.71,3.09,3.09,0,0,1,3.06,3.23C271.8,521.77,270.22,522.67,268.43,522.53Zm28.16.08,0-.83c1,0,1.6-.54,1.5-2.35l-.88-15.89a22.16,22.16,0,0,1-5.53,1.29l-.22-4c1.66-.24,6.57-1.53,7.54-4.8l5.13-.29a6.67,6.67,0,0,0-.21,2.21L305.05,519c.1,1.74.78,2.23,1.8,2.17l0,.83Zm31.22-3c-2.68.47-6.23.75-7,.89a6.5,6.5,0,0,0-1.53.46l-3.07-6.88.84-.38c1.4,1.36,3.49,1.95,7.78,1.2,4.77-.84,6.86-3.74,6.35-7.17a16.47,16.47,0,0,1-6.43,2.51c-6.78,1.19-11.19-1.56-12-6.31-.92-5.2,2.23-9.85,10.17-11.25,8.34-1.47,13.68,2.53,15.15,10.85C339.63,512.77,334.91,518.39,327.81,519.64Zm-3.63-21.53c-3.28.57-5.09,2.08-4.67,4.45s2.5,2.9,5.58,2.35a12.15,12.15,0,0,0,5.18-2.09C329.69,499.55,327.64,497.5,324.18,498.11Zm36.65,13.57c-8.34,2.7-14-.59-16.62-8.74-2.82-8.73,1.51-15.37,8.92-17.77a59.92,59.92,0,0,1,6.07-1.49,6.46,6.46,0,0,0,1.47-.63l3.9,6.24-.76.56c-1.57-1.16-2.88-1.61-7.85,0-4.42,1.43-6.13,4.36-5.26,7.85a15.22,15.22,0,0,1,5.83-3.31c6.52-2.11,11.41-.64,13.12,4.68C371.2,503.84,368.2,509.3,360.83,511.68Zm-3.93-11.9a11.12,11.12,0,0,0-4.63,2.65c1,3.16,3.15,5.13,6.49,4.05s4.6-3,4-4.94C362,499.39,359.89,498.81,356.9,499.78Zm33.5-.26c-2.45,1.19-5.79,2.44-6.52,2.79a6.44,6.44,0,0,0-1.35.87l-4.84-5.78.7-.6c1.72.93,3.89.92,7.81-1,4.36-2.12,5.57-5.48,4.13-8.63a16.31,16.31,0,0,1-5.48,4.17c-6.19,3-11.18,1.57-13.29-2.77-2.31-4.74-.56-10.08,6.69-13.6,7.62-3.7,13.85-1.32,17.54,6.28C399.87,489.68,396.88,496.38,390.4,499.52ZM381,479.81c-3,1.46-4.32,3.4-3.27,5.57s3.2,2.1,6,.73a12,12,0,0,0,4.4-3.43C386.69,479.69,384.15,478.28,381,479.81Zm48.06-29.3,7.63-7.47-4.23-9,9,4.42,7.63-7.48L447,441.14l8.94,4.42-10.25,1.89-2.11,10.22-4.23-9Zm-28.65-2L399,446.42A196.35,196.35,0,0,1,172.9,445.1l-1.49,2.07a198.88,198.88,0,0,0,229,1.34ZM288.15,90.44A195.68,195.68,0,0,1,393.32,121l1.36-2.15a199,199,0,0,0-213.06,0L183,121A195.63,195.63,0,0,1,288.15,90.44Z"/><path class="cls-2" d="M288,540C149.05,540,36,427,36,288S149.05,36,288,36,540,149.05,540,288,427,540,288,540Zm0-499.76C151.38,40.24,40.24,151.38,40.24,288S151.38,535.76,288,535.76,535.76,424.62,535.76,288,424.62,40.24,288,40.24Z"/></g></svg>